<?xml version="1.0" encoding="UTF-8" standalone="no"?>
<svg
   xmlns:dc="http://purl.org/dc/elements/1.1/"
   xmlns:cc="http://creativecommons.org/ns#"
   xmlns:rdf="http://www.w3.org/1999/02/22-rdf-syntax-ns#"
   xmlns:svg="http://www.w3.org/2000/svg"
   xmlns="http://www.w3.org/2000/svg"
   xmlns:sodipodi="http://sodipodi.sourceforge.net/DTD/sodipodi-0.dtd"
   xmlns:inkscape="http://www.inkscape.org/namespaces/inkscape"
   width="210mm"
   height="297mm"
   viewBox="0 0 210 297"
   version="1.1"
   id="svg8"
   inkscape:version="1.0.2 (e86c870879, 2021-01-15, custom)"
   sodipodi:docname="AP logo.svg">
  <defs
     id="defs2" />
  <sodipodi:namedview
     id="base"
     pagecolor="#ffffff"
     bordercolor="#666666"
     borderopacity="1.0"
     inkscape:pageopacity="0.0"
     inkscape:pageshadow="2"
     inkscape:zoom="3.959798"
     inkscape:cx="271.60832"
     inkscape:cy="448.29322"
     inkscape:document-units="mm"
     inkscape:current-layer="layer1"
     inkscape:document-rotation="0"
     showgrid="false"
     inkscape:window-width="1920"
     inkscape:window-height="1017"
     inkscape:window-x="-8"
     inkscape:window-y="-8"
     inkscape:window-maximized="1" />
  <metadata
     id="metadata5">
    <rdf:RDF>
      <cc:Work
         rdf:about="">
        <dc:format>image/svg+xml</dc:format>
        <dc:type
           rdf:resource="http://purl.org/dc/dcmitype/StillImage" />
        <dc:title></dc:title>
      </cc:Work>
    </rdf:RDF>
  </metadata>
  <g
     inkscape:label="Layer 1"
     inkscape:groupmode="layer"
     id="layer1">
    <g
       id="g940"
       inkscape:export-xdpi="96"
       inkscape:export-ydpi="96">
      <g
         id="g62"
         transform="matrix(0.14249688,0,0,0.14249688,53.356664,82.991215)"
         inkscape:export-xdpi="96"
         inkscape:export-ydpi="96"
         style="fill:#161650;fill-opacity:1">
        <text
           xml:space="preserve"
           style="font-style:normal;font-weight:normal;font-size:84.9145px;line-height:1.25;font-family:sans-serif;fill:#161650;fill-opacity:1;stroke:none;stroke-width:2.12287"
           x="25.96524"
           y="229.04547"
           id="text20"><tspan
             sodipodi:role="line"
             id="tspan18"
             x="25.96524"
             y="229.04547"
             style="font-style:normal;font-variant:normal;font-weight:bold;font-stretch:normal;font-family:sans-serif;-inkscape-font-specification:'sans-serif Bold';stroke-width:2.12287;fill:#161650;fill-opacity:1">A</tspan></text>
        <text
           xml:space="preserve"
           style="font-style:normal;font-weight:normal;font-size:79.9348px;line-height:1.25;font-family:sans-serif;fill:#161650;fill-opacity:1;stroke:none;stroke-width:1.99837"
           x="67.419472"
           y="230.78741"
           id="text24"><tspan
             sodipodi:role="line"
             id="tspan22"
             x="67.419472"
             y="230.78741"
             style="font-style:normal;font-variant:normal;font-weight:bold;font-stretch:normal;font-family:sans-serif;-inkscape-font-specification:'sans-serif Bold';stroke-width:1.99837;fill:#161650;fill-opacity:1">p</tspan></text>
      </g>
      <path
         id="path78"
         style="fill:#161650;fill-opacity:1;stroke-width:0.214336"
         d="m 63.766516,103.68965 a 9.1205785,8.8770022 0 0 0 -9.120634,8.87712 9.1205785,8.8770022 0 0 0 9.120634,8.87713 9.1205785,8.8770022 0 0 0 9.120637,-8.87713 9.1205785,8.8770022 0 0 0 -9.120637,-8.87712 z m 0.04423,0.88091 a 8.2307667,8.0109539 0 0 1 0.0037,0 8.2307667,8.0109539 0 0 1 8.230875,8.01064 8.2307667,8.0109539 0 0 1 -8.230875,8.01112 8.2307667,8.0109539 0 0 1 -8.230409,-8.01112 8.2307667,8.0109539 0 0 1 8.226685,-8.01064 z" />
      <path
         style="fill:#000000;fill-opacity:0;stroke-width:0.252538"
         d="m 241.55628,441.2769 v -5.24856 l -0.96934,-2.8958 -0.96934,-2.8958 -6.29113,-0.065 -6.29113,-0.065 -1.14962,3.34799 -1.14961,3.34799 -4.18561,0.0691 -4.1856,0.0691 3.7641,-10.17063 c 2.07025,-5.59384 4.81203,-13.03811 6.09283,-16.54281 l 2.32873,-6.37219 4.8321,-0.004 4.8321,-0.004 0.62815,1.70464 c 0.34548,0.93754 1.22472,3.32403 1.95386,5.3033 l 1.32572,3.59867 h 3.37869 3.3787 v 1.26269 c 0,0.69448 0.04,1.26269 0.0888,1.26269 0.0489,0 0.87276,-0.5152 1.8309,-1.14488 0.95814,-0.62968 2.30251,-1.31153 2.98747,-1.51523 1.43923,-0.428 4.39479,-0.48439 5.74418,-0.1096 2.518,0.69936 4.85054,3.27095 5.82892,6.42628 0.67131,2.16502 0.78438,7.0592 0.21015,9.0966 -0.97319,3.45296 -3.06646,6.16975 -5.78487,7.50802 -1.43256,0.70525 -1.96446,0.82391 -4.06713,0.90734 -2.01416,0.0799 -2.67263,0.004 -3.93426,-0.45385 -0.83337,-0.3024 -1.82774,-0.61095 -2.20971,-0.68566 l -0.69448,-0.13584 v 4.82689 4.82689 h -3.6618 -3.6618 z m 13.98208,-8.76448 c 2.10173,-1.00536 3.07905,-3.52141 2.8915,-7.44404 -0.12725,-2.66172 -0.80897,-4.2598 -2.18115,-5.11305 -1.30209,-0.80966 -4.15468,-0.79161 -6.043,0.0382 l -1.32583,0.58265 v 6.02259 6.0226 l 0.82075,0.25157 c 1.28119,0.3927 4.70511,0.18122 5.83773,-0.36056 z m -18.0845,-8.526 c -0.0637,-0.17362 -1.00249,-2.90628 -2.08616,-6.07259 -1.08367,-3.1663 -2.05356,-5.66643 -2.15531,-5.55584 -0.20469,0.2225 -4.03048,11.3384 -4.03048,11.71065 0,0.13354 1.79496,0.23345 4.1939,0.23345 3.24854,0 4.16778,-0.0712 4.07805,-0.31567 z"
         id="path102"
         transform="scale(0.26458333)" />
      <path
         id="path104"
         style="fill:#000000;fill-opacity:0;stroke-width:0.252538"
         d="M 240.67969 388.05469 C 238.13963 388.05777 235.59682 388.31217 233.0957 388.82617 C 218.06338 391.91544 206.57356 403.21984 203.37695 418.06641 C 202.9225 420.17726 202.82419 421.45627 202.82422 425.18555 C 202.82427 430.10204 203.18733 432.48165 204.56641 436.5957 C 208.97211 449.73869 220.70682 459.49405 234.88867 461.80078 L 234.89062 461.80078 C 238.06823 462.31763 245.43257 462.14247 248.50195 461.47656 C 256.29431 459.78598 262.45852 456.45517 267.9668 450.95898 C 273.45025 445.48758 276.54474 439.82654 278.22266 432.19727 C 279.00912 428.61874 279.00846 421.72514 278.2207 418.06641 C 276.1178 408.29955 270.53891 400.05865 262.32617 394.58203 C 255.90073 390.2973 248.29985 388.04545 240.67969 388.05469 z M 240.14648 391.51562 C 240.99101 391.49559 241.84111 391.50636 242.69336 391.54688 C 246.27552 391.71718 248.80476 392.19759 252.40234 393.39258 C 263.93964 397.22488 272.70993 407.10983 275.06055 418.92969 C 275.68316 422.06027 275.67286 428.4273 275.03906 431.5 C 273.70337 437.97546 270.74059 443.56273 266.11523 448.33203 C 263.23166 451.30534 260.25814 453.4619 256.58203 455.24805 C 253.45254 456.76861 251.54618 457.43799 248.24805 458.17188 C 246.6505 458.52735 244.77564 458.70403 241.93555 458.76562 C 237.39639 458.86401 237.12031 458.84271 233.60156 458.11523 C 220.92136 455.49367 210.69535 445.8888 207.41406 433.51953 C 206.63817 430.59483 206.60926 430.30886 206.59766 425.3125 C 206.58693 420.67832 206.65007 419.88388 207.1875 417.73633 C 207.95365 414.67478 208.72908 412.62005 210.18359 409.80273 C 215.845 398.83688 227.47863 391.81609 240.14648 391.51562 z "
         transform="scale(0.26458333)" />
    </g>
  </g>
</svg>
